<svg xmlns="http://www.w3.org/2000/svg" viewBox="0 0 1024 1024" role="img" aria-label="Triton logo">
  <defs>
    <radialGradient id="bg" cx="50%" cy="42%" r="74%">
      <stop offset="0" stop-color="#171614"/>
      <stop offset="0.58" stop-color="#090a09"/>
      <stop offset="1" stop-color="#020302"/>
    </radialGradient>
    <radialGradient id="halo" cx="50%" cy="38%" r="34%">
      <stop offset="0" stop-color="#f5a118" stop-opacity=".18"/>
      <stop offset="1" stop-color="#f5a118" stop-opacity="0"/>
    </radialGradient>
    <linearGradient id="silver" x1="58" x2="197" y1="54" y2="210" gradientUnits="userSpaceOnUse">
      <stop offset="0" stop-color="#fffdf5"/>
      <stop offset="0.28" stop-color="#d9d7ce"/>
      <stop offset="0.55" stop-color="#8e918b"/>
      <stop offset="1" stop-color="#eff0eb"/>
    </linearGradient>
    <linearGradient id="silverDark" x1="76" x2="183" y1="58" y2="219" gradientUnits="userSpaceOnUse">
      <stop offset="0" stop-color="#f8f7f0"/>
      <stop offset="0.48" stop-color="#9ea19b"/>
      <stop offset="1" stop-color="#252927"/>
    </linearGradient>
    <linearGradient id="amber" x1="128" x2="128" y1="30" y2="205" gradientUnits="userSpaceOnUse">
      <stop offset="0" stop-color="#ffe04f"/>
      <stop offset="0.48" stop-color="#f5a118"/>
      <stop offset="1" stop-color="#c56700"/>
    </linearGradient>
    <linearGradient id="word" x1="0" x2="0" y1="0" y2="1">
      <stop offset="0" stop-color="#f7f4ec"/>
      <stop offset=".46" stop-color="#9d9f9a"/>
      <stop offset="1" stop-color="#e1dfd6"/>
    </linearGradient>
    <filter id="glow" x="-40%" y="-40%" width="180%" height="180%">
      <feGaussianBlur stdDeviation="6" result="blur"/>
      <feColorMatrix in="blur" type="matrix" values="1 0 0 0 1 0 0.54 0 0 0.06 0 0 0 0 0 0 0 0.45 0"/>
      <feMerge>
        <feMergeNode/>
        <feMergeNode in="SourceGraphic"/>
      </feMerge>
    </filter>
    <filter id="shadow" x="-22%" y="-22%" width="144%" height="144%">
      <feDropShadow dx="0" dy="8" stdDeviation="6" flood-color="#000" flood-opacity=".55"/>
    </filter>
  </defs>

  <rect width="1024" height="1024" fill="url(#bg)"/>
  <rect width="1024" height="1024" fill="url(#halo)"/>

  <g transform="translate(512 380) scale(3.05) translate(-128 -128)">
    <g fill="none" stroke="url(#silver)" stroke-width="8" stroke-linecap="butt" filter="url(#shadow)" opacity=".94">
      <path d="M74 162a72 72 0 0 1 17-82"/>
      <path d="M98 68a72 72 0 0 1 30-8"/>
      <path d="M136 60a72 72 0 0 1 45 27"/>
      <path d="M184 101a72 72 0 0 1-2 61"/>
      <path d="M84 183a72 72 0 0 0 36 16"/>
      <path d="M137 199a72 72 0 0 0 35-17"/>
    </g>
    <g filter="url(#glow)">
      <path d="M128 30c7 43 12 72 17 99l-17-9-17 9c5-27 10-56 17-99z" fill="url(#amber)"/>
      <path d="M79 72l38 55-19-8z" fill="url(#silverDark)"/>
      <path d="M177 72l-38 55 19-8z" fill="url(#silverDark)"/>
      <path d="M44 128l49-5 35-11 35 11 49 5-49 5-35 11-35-11z" fill="url(#silver)"/>
      <path d="M128 143l10 62-10 24-10-24z" fill="url(#silverDark)"/>
    </g>
    <g fill="#d8d6cf" opacity=".88">
      <rect x="55" y="125" width="20" height="6"/>
      <rect x="181" y="125" width="20" height="6"/>
    </g>
    <circle cx="128" cy="128" r="18" fill="#efeee7" filter="url(#shadow)"/>
    <circle cx="128" cy="128" r="11" fill="#070807"/>
    <circle cx="128" cy="128" r="7" fill="url(#amber)"/>
    <circle cx="128" cy="198" r="15" fill="#d9d6ce" filter="url(#shadow)"/>
    <circle cx="128" cy="198" r="10" fill="#070807"/>
    <circle cx="128" cy="198" r="7" fill="url(#amber)"/>
  </g>

  <text x="512" y="764" text-anchor="middle" font-family="Inter, Arial, Helvetica, sans-serif" font-size="62" font-weight="700" fill="url(#word)" letter-spacing="48">TRITON</text>
  <path d="M390 814h98l14-11 14 11h118" fill="none" stroke="url(#amber)" stroke-width="2"/>
</svg>
