<svg xmlns="http://www.w3.org/2000/svg" viewBox="0 0 1024 1024" role="img" aria-label="Triton logo">
  <defs>
    <radialGradient id="bg" cx="50%" cy="42%" r="72%">
      <stop offset="0" stop-color="#151514"/>
      <stop offset="1" stop-color="#050605"/>
    </radialGradient>
    <linearGradient id="silver" x1="0" x2="1" y1="0" y2="1">
      <stop offset="0" stop-color="#f4f1ea"/>
      <stop offset="0.42" stop-color="#b9b7b0"/>
      <stop offset="1" stop-color="#555957"/>
    </linearGradient>
    <linearGradient id="silverDark" x1="0" x2="1" y1="0" y2="1">
      <stop offset="0" stop-color="#f8f6ee"/>
      <stop offset="0.55" stop-color="#8f928d"/>
      <stop offset="1" stop-color="#202423"/>
    </linearGradient>
    <linearGradient id="amber" x1="0" x2="0" y1="0" y2="1">
      <stop offset="0" stop-color="#ffd34b"/>
      <stop offset="0.58" stop-color="#f59a13"/>
      <stop offset="1" stop-color="#cc6b00"/>
    </linearGradient>
    <filter id="glow" x="-35%" y="-35%" width="170%" height="170%">
      <feGaussianBlur stdDeviation="10" result="blur"/>
      <feColorMatrix in="blur" type="matrix" values="1 0 0 0 1 0 0.52 0 0 0.56 0 0 0.08 0 0 0 0 0.5 0"/>
      <feMerge>
        <feMergeNode/>
        <feMergeNode in="SourceGraphic"/>
      </feMerge>
    </filter>
  </defs>
  <rect width="1024" height="1024" fill="url(#bg)"/>
  <g transform="translate(512 386) scale(3)">
    <g fill="none" stroke="url(#silver)" stroke-width="8" stroke-linecap="butt" opacity=".9">
      <path d="M-54 34a70 70 0 0 1 18-81"/>
      <path d="M36-47a70 70 0 0 1 18 81"/>
      <path d="M-43 55a70 70 0 0 0 33 15"/>
      <path d="M10 70a70 70 0 0 0 33-15"/>
      <path d="M-30-59a70 70 0 0 1 37-13"/>
      <path d="M23-72a70 70 0 0 1 37 26"/>
    </g>
    <g filter="url(#glow)">
      <path d="M0-90 11 3 0-3-11 3z" fill="url(#amber)"/>
      <path d="M-63-58-20 2-36-5z" fill="url(#silverDark)"/>
      <path d="M63-58 20 2 36-5z" fill="url(#silverDark)"/>
      <path d="M-89 0h54L0-9l35 9h54L0 13z" fill="url(#silver)"/>
      <path d="M0 13 8 77 0 100-8 77z" fill="url(#silverDark)"/>
      <circle cx="0" cy="0" r="17" fill="#f2f0e8"/>
      <circle cx="0" cy="0" r="10" fill="#080909"/>
      <circle cx="0" cy="0" r="6" fill="url(#amber)"/>
      <circle cx="0" cy="70" r="13" fill="#d5d1c8"/>
      <circle cx="0" cy="70" r="8" fill="#080909"/>
      <circle cx="0" cy="70" r="5" fill="url(#amber)"/>
    </g>
    <g fill="#c7c5bd" opacity=".86">
      <rect x="-73" y="-3" width="20" height="6"/>
      <rect x="53" y="-3" width="20" height="6"/>
    </g>
  </g>
  <text x="512" y="760" text-anchor="middle" font-family="Inter, Arial, Helvetica, sans-serif" font-size="58" font-weight="700" fill="#c7c3bd" letter-spacing="48">TRITON</text>
  <path d="M392 815h96l14-11 14 11h116" fill="none" stroke="url(#amber)" stroke-width="2"/>
</svg>
